<?xml version="1.0" encoding="utf-8"?>
<!-- Generator: Adobe Illustrator 16.0.0, SVG Export Plug-In . SVG Version: 6.00 Build 0)  -->
<!DOCTYPE svg PUBLIC "-//W3C//DTD SVG 1.1//EN" "http://www.w3.org/Graphics/SVG/1.1/DTD/svg11.dtd">
<svg version="1.1" id="Layer_1" xmlns="http://www.w3.org/2000/svg" xmlns:xlink="http://www.w3.org/1999/xlink" x="0px" y="0px"
	 width="175px" height="177px" viewBox="0 0 175 177" enable-background="new 0 0 175 177" xml:space="preserve">
<path fill="#E5E5E5" d="M175,91c0,47.496-38.504,86-86,86S3,138.496,3,91C3,43.503,41.504,5,89,5S175,43.503,175,91"/>
<path fill="#AFC4D5" d="M172,86c0,47.496-38.504,86-86,86S0,133.496,0,86C0,38.503,38.504,0,86,0S172,38.503,172,86"/>
<g opacity="0.5">
	<g>
		<path fill="#010101" d="M146.812,25.188c33.585,33.585,33.585,88.038,0,121.622c-33.585,33.586-88.038,33.586-121.623,0"/>
	</g>
</g>
<g>
	<defs>
		<path id="SVGID_1_" d="M0,86c0,47.496,38.504,86,86,86s86.002-38.504,86.002-86c0-47.497-38.506-86-86.002-86S0,38.503,0,86"/>
	</defs>
	<clipPath id="SVGID_2_">
		<use xlink:href="#SVGID_1_"  overflow="visible"/>
	</clipPath>
</g>
<path fill="#2F2F31" d="M49.194,82.338c-1.162,0.102-2.34,0.219-3.554,0.365c-0.41,0.047-0.805,0.1-1.193,0.153
	c-1.107-1.518-2.869-2.431-4.766-2.43l-10.497,0.015c-3.273,0.002-5.929,2.668-5.925,5.938c0.002,3.271,2.668,5.93,5.939,5.926
	l10.494-0.016c1.9-0.002,3.659-0.918,4.766-2.44c0.385,0.052,0.78,0.105,1.189,0.152c1.214,0.142,2.395,0.255,3.558,0.354
	c-0.14-1.322-0.213-2.661-0.216-4.01C48.988,84.999,49.059,83.661,49.194,82.338"/>
<path fill="#2F2F31" d="M87.483,124.746c-1.351,0-2.688-0.07-4.015-0.205c0.103,1.162,0.221,2.342,0.365,3.555
	c0.049,0.41,0.102,0.803,0.156,1.191c-1.52,1.109-2.43,2.871-2.427,4.77l0.014,10.494c0,3.268,2.659,5.922,5.923,5.924v-25.73
	L87.483,124.746z"/>
<path fill="#102D50" d="M87.298,80.89c-2.883,0.073-5.208,2.401-5.279,5.287c0,0.045-0.005,0.087-0.005,0.132
	c0,0.044,0.005,0.087,0.005,0.128c0.073,2.885,2.408,5.211,5.291,5.276c0.045,0.004,0.088,0.008,0.133,0.008
	c0.019,0,0.037-0.002,0.057-0.002v-3.226c-0.021,0.001-0.04,0.006-0.062,0.006c-1.214,0.004-2.2-0.984-2.2-2.196
	c-0.002-1.21,0.982-2.198,2.195-2.199c0.023,0,0.045,0.006,0.066,0.007v-3.224c-0.021-0.002-0.045-0.004-0.068-0.004
	C87.386,80.882,87.343,80.889,87.298,80.89"/>
<path fill="#2F2F31" d="M87.5,47.859V22.133c-0.048-0.002-0.095-0.007-0.146-0.007c-3.27,0.004-5.929,2.671-5.924,5.94l0.015,10.495
	c0,1.9,0.92,3.655,2.438,4.764c-0.05,0.387-0.103,0.78-0.149,1.188c-0.142,1.216-0.258,2.395-0.357,3.556
	c1.325-0.137,2.661-0.213,4.012-0.214C87.426,47.855,87.461,47.859,87.5,47.859"/>
<path fill="#2F2F31" d="M57.765,110.753l-3.465,3.475c-1.771-0.188-3.522,0.416-4.787,1.689l-7.41,7.428
	c-1.119,1.123-1.736,2.613-1.734,4.197s0.623,3.072,1.746,4.189c1.118,1.123,2.608,1.736,4.193,1.732
	c1.585,0,3.077-0.617,4.191-1.738l7.414-7.43c1.104-1.109,1.713-2.582,1.707-4.154c0.002-0.213-0.011-0.426-0.032-0.637l3.467-3.477
	c-0.958-0.787-1.882-1.625-2.771-2.51C59.394,112.632,58.555,111.708,57.765,110.753"/>
<path fill="#2F2F31" d="M62.982,56.631l-3.475-3.466c0.024-0.21,0.031-0.423,0.031-0.636v0.001c0-1.572-0.613-3.046-1.717-4.151
	L50.39,40.97c-1.123-1.121-2.616-1.735-4.198-1.735c-1.584,0.003-3.073,0.622-4.192,1.746c-1.119,1.118-1.732,2.61-1.732,4.194
	c0,1.586,0.622,3.072,1.74,4.194l7.433,7.41c1.271,1.266,3.021,1.869,4.791,1.678l3.476,3.465c0.787-0.958,1.621-1.884,2.508-2.772
	C61.102,58.26,62.027,57.421,62.982,56.631"/>
<path fill="#CA9862" d="M87.5,124.744v-2.789h-0.021c-9.522,0.012-18.481-3.688-25.222-10.414
	c-6.743-6.725-10.464-15.67-10.476-25.197c-0.01-9.521,3.688-18.479,10.41-25.223c6.728-6.742,15.674-10.458,25.199-10.475
	c0.038,0,0.073,0.004,0.109,0.004v-2.791c-0.038,0-0.073-0.004-0.111-0.004c-1.351,0-2.687,0.076-4.012,0.214
	c-7.52,0.784-14.564,3.738-20.395,8.562c-0.955,0.79-1.879,1.629-2.767,2.518c-0.888,0.89-1.722,1.815-2.51,2.773
	c-4.81,5.842-7.748,12.893-8.513,20.416c-0.133,1.323-0.205,2.661-0.203,4.01c0.003,1.35,0.076,2.688,0.216,4.01
	c0.782,7.521,3.739,14.566,8.56,20.396c0.79,0.955,1.629,1.879,2.519,2.766s1.813,1.723,2.771,2.512
	c5.843,4.809,12.892,7.742,20.414,8.51c1.324,0.135,2.663,0.205,4.013,0.205L87.5,124.744z"/>
<path fill="#2F2F31" d="M62.192,61.121c-6.724,6.743-10.42,15.701-10.411,25.223c0.012,9.527,3.732,18.472,10.475,25.197
	c6.742,6.727,15.701,10.426,25.223,10.414h0.014L87.5,97.802c-0.017,0-0.033,0.002-0.053,0.002
	c-1.166,0.002-2.291-0.174-3.354-0.498c-0.063,1.135-0.125,2.273-0.18,3.418l-0.109,2.213c-0.072,1.922-0.207,3.873-0.34,5.762
	c-0.174,2.525-0.359,5.139-0.381,7.623c0,0.342,0.014,0.693,0.019,1.035c-5.494-0.754-10.642-2.943-15.009-6.379l14.312-14.346
	c-2.294-1.123-4.16-2.984-5.288-5.279l-14.313,14.348c-3.447-4.357-5.647-9.5-6.416-14.992c0.348,0.004,0.701,0.016,1.048,0.016
	c2.474-0.027,5.085-0.217,7.608-0.398c1.89-0.137,3.84-0.278,5.778-0.357l2.199-0.111c1.147-0.058,2.282-0.123,3.415-0.188
	c-0.326-1.063-0.503-2.188-0.506-3.356c-0.002-1.166,0.175-2.289,0.496-3.352c-1.135-0.064-2.27-0.126-3.414-0.182l-2.217-0.107
	c-1.92-0.073-3.875-0.21-5.764-0.339c-2.521-0.177-5.132-0.36-7.617-0.382c-0.344,0.001-0.693,0.015-1.039,0.019
	c0.754-5.495,2.944-10.642,6.381-15.009l14.347,14.311c1.124-2.297,2.983-4.16,5.276-5.287L68.035,61.671
	c4.358-3.446,9.5-5.647,14.992-6.415c-0.005,0.347-0.018,0.702-0.018,1.049c0.027,2.471,0.219,5.084,0.4,7.607
	c0.135,1.888,0.277,3.839,0.355,5.777l0.115,2.197c0.057,1.146,0.117,2.287,0.183,3.42c1.062-0.328,2.19-0.505,3.357-0.507
	c0.026,0,0.053,0.003,0.079,0.003V50.65c-0.037,0-0.071-0.004-0.109-0.004C77.866,50.663,68.919,54.379,62.192,61.121"/>
<path fill="#CA9862" d="M84.063,75.307c-0.582,0.179-1.142,0.411-1.683,0.678c-2.293,1.127-4.152,2.991-5.276,5.288
	c-0.265,0.542-0.496,1.103-0.676,1.688c-0.322,1.063-0.499,2.187-0.497,3.353c0.003,1.168,0.18,2.293,0.506,3.354
	c0.182,0.584,0.412,1.144,0.68,1.685c1.129,2.295,2.994,4.156,5.288,5.279c0.542,0.264,1.104,0.494,1.688,0.674
	c1.063,0.324,2.188,0.5,3.354,0.498c0.02,0,0.036-0.002,0.053-0.002v-6.084c-0.02,0-0.039,0.002-0.057,0.002
	c-0.045,0-0.088-0.004-0.133-0.008c-2.883-0.064-5.219-2.391-5.291-5.276c0-0.041-0.005-0.084-0.005-0.128
	c0-0.045,0.005-0.087,0.005-0.132c0.07-2.886,2.396-5.214,5.279-5.287c0.045-0.001,0.088-0.008,0.133-0.008
	c0.023,0,0.047,0.002,0.068,0.004v-6.083c-0.026,0-0.053-0.003-0.078-0.003C86.251,74.802,85.125,74.979,84.063,75.307"/>
<path fill="#04748D" d="M85.238,86.302c0,1.212,0.986,2.2,2.2,2.196c0.021,0,0.04-0.006,0.062-0.007v-4.382
	c-0.021-0.001-0.043-0.007-0.066-0.007C86.22,84.104,85.236,85.092,85.238,86.302"/>
<path fill="#2F2F31" d="M125.805,82.338c1.161,0.102,2.342,0.219,3.555,0.365c0.411,0.047,0.807,0.1,1.192,0.153
	c1.106-1.518,2.871-2.431,4.768-2.43l10.499,0.015c3.271,0.002,5.925,2.668,5.922,5.938c-0.002,3.271-2.667,5.93-5.938,5.926
	l-10.494-0.016c-1.901-0.002-3.659-0.918-4.766-2.44c-0.388,0.052-0.783,0.105-1.189,0.152c-1.216,0.142-2.394,0.255-3.558,0.354
	c0.138-1.322,0.213-2.661,0.216-4.01C126.013,84.999,125.94,83.661,125.805,82.338"/>
<path fill="#2F2F31" d="M87.518,124.746c1.351,0,2.687-0.07,4.014-0.205c-0.102,1.162-0.22,2.342-0.364,3.555
	c-0.052,0.41-0.102,0.803-0.156,1.191c1.517,1.109,2.43,2.871,2.425,4.77l-0.012,10.494c0,3.268-2.659,5.922-5.925,5.924v-25.73
	C87.506,124.744,87.511,124.746,87.518,124.746"/>
<path fill="#2F2F31" d="M87.5,47.859V22.133c0.05-0.002,0.097-0.007,0.144-0.007c3.273,0.004,5.933,2.671,5.928,5.94l-0.017,10.495
	c0,1.9-0.918,3.655-2.437,4.764c0.05,0.387,0.102,0.78,0.149,1.188c0.142,1.216,0.258,2.395,0.354,3.556
	c-1.322-0.137-2.661-0.213-4.009-0.214C87.575,47.855,87.538,47.859,87.5,47.859"/>
<path fill="#2F2F31" d="M117.234,110.753l3.467,3.475c1.771-0.188,3.522,0.416,4.787,1.689l7.408,7.428
	c1.121,1.123,1.734,2.613,1.734,4.197s-0.621,3.072-1.744,4.189c-1.119,1.123-2.611,1.736-4.193,1.732
	c-1.585,0-3.074-0.617-4.193-1.738l-7.412-7.43c-1.104-1.109-1.713-2.582-1.707-4.154c0-0.213,0.011-0.426,0.032-0.637l-3.467-3.477
	c0.957-0.787,1.882-1.625,2.771-2.51C115.607,112.632,116.444,111.708,117.234,110.753"/>
<path fill="#2F2F31" d="M112.019,56.631l3.474-3.466c-0.023-0.21-0.034-0.423-0.034-0.636l0.004,0.001
	c-0.004-1.572,0.612-3.046,1.717-4.151l7.432-7.409c1.123-1.121,2.613-1.735,4.198-1.735c1.582,0.003,3.072,0.622,4.19,1.746
	c1.121,1.118,1.734,2.61,1.734,4.194c-0.003,1.586-0.622,3.072-1.741,4.194l-7.434,7.41c-1.269,1.266-3.021,1.869-4.789,1.678
	l-3.475,3.465c-0.788-0.958-1.625-1.884-2.51-2.772C113.897,58.26,112.974,57.421,112.019,56.631"/>
<g opacity="0.29">
	<g>
		<defs>
			<rect id="SVGID_3_" x="125.796" y="80.423" width="25.944" height="11.879"/>
		</defs>
		<clipPath id="SVGID_4_">
			<use xlink:href="#SVGID_3_"  overflow="visible"/>
		</clipPath>
		<path clip-path="url(#SVGID_4_)" fill="#2F2F31" d="M125.805,82.338c1.161,0.102,2.342,0.219,3.555,0.365
			c0.411,0.047,0.807,0.1,1.192,0.153c1.106-1.518,2.871-2.431,4.768-2.43l10.499,0.015c3.271,0.002,5.925,2.668,5.922,5.938
			c-0.002,3.271-2.667,5.93-5.938,5.926l-10.494-0.016c-1.901-0.002-3.659-0.918-4.766-2.44c-0.388,0.052-0.783,0.105-1.189,0.152
			c-1.216,0.142-2.394,0.255-3.558,0.354c0.138-1.322,0.213-2.661,0.216-4.01C126.013,84.999,125.94,83.661,125.805,82.338"/>
	</g>
</g>
<g opacity="0.29">
	<g>
		<defs>
			<rect id="SVGID_5_" x="87.499" y="124.542" width="5.938" height="25.93"/>
		</defs>
		<clipPath id="SVGID_6_">
			<use xlink:href="#SVGID_5_"  overflow="visible"/>
		</clipPath>
		<path clip-path="url(#SVGID_6_)" fill="#2F2F31" d="M87.518,124.746c1.351,0,2.687-0.07,4.014-0.205
			c-0.102,1.162-0.22,2.342-0.364,3.555c-0.052,0.41-0.102,0.803-0.156,1.191c1.517,1.109,2.43,2.871,2.425,4.77l-0.012,10.494
			c0,3.268-2.659,5.922-5.925,5.924v-25.73C87.506,124.744,87.511,124.746,87.518,124.746"/>
	</g>
</g>
<path fill="#071A2D" d="M87.703,80.89c2.883,0.073,5.208,2.401,5.276,5.287c0,0.045,0.008,0.087,0.008,0.132
	c0,0.044-0.008,0.087-0.008,0.128c-0.07,2.885-2.407,5.211-5.288,5.276c-0.045,0.004-0.088,0.008-0.133,0.008
	c-0.019,0-0.037-0.002-0.059-0.002v-3.226c0.021,0.001,0.042,0.006,0.063,0.006c1.214,0.004,2.197-0.984,2.199-2.196
	c0.003-1.21-0.983-2.198-2.194-2.199c-0.023,0-0.045,0.006-0.068,0.007v-3.224c0.023-0.002,0.047-0.004,0.07-0.004
	C87.615,80.882,87.658,80.889,87.703,80.89"/>
<g opacity="0.29">
	<g>
		<defs>
			<rect id="SVGID_7_" x="87.499" y="22.123" width="6.072" height="25.949"/>
		</defs>
		<clipPath id="SVGID_8_">
			<use xlink:href="#SVGID_7_"  overflow="visible"/>
		</clipPath>
		<path clip-path="url(#SVGID_8_)" fill="#2F2F31" d="M87.5,47.859V22.133c0.05-0.002,0.097-0.007,0.144-0.007
			c3.273,0.004,5.933,2.671,5.928,5.94l-0.017,10.495c0,1.9-0.918,3.655-2.437,4.764c0.05,0.387,0.102,0.78,0.149,1.188
			c0.142,1.216,0.258,2.395,0.354,3.556c-1.322-0.137-2.661-0.213-4.009-0.214C87.575,47.855,87.538,47.859,87.5,47.859"/>
	</g>
</g>
<g opacity="0.29">
	<g>
		<defs>
			<rect id="SVGID_9_" x="111.945" y="110.753" width="22.688" height="22.709"/>
		</defs>
		<clipPath id="SVGID_10_">
			<use xlink:href="#SVGID_9_"  overflow="visible"/>
		</clipPath>
		<path clip-path="url(#SVGID_10_)" fill="#2F2F31" d="M117.234,110.753l3.467,3.475c1.771-0.188,3.522,0.416,4.787,1.689
			l7.408,7.428c1.121,1.123,1.734,2.613,1.734,4.197s-0.621,3.072-1.744,4.189c-1.119,1.123-2.611,1.736-4.193,1.732
			c-1.585,0-3.074-0.617-4.193-1.738l-7.412-7.43c-1.104-1.109-1.713-2.582-1.707-4.154c0-0.213,0.011-0.426,0.032-0.637
			l-3.467-3.477c0.957-0.787,1.882-1.625,2.771-2.51C115.607,112.632,116.444,111.708,117.234,110.753"/>
	</g>
</g>
<g opacity="0.29">
	<g>
		<defs>
			<rect id="SVGID_11_" x="112.019" y="39.232" width="22.714" height="22.69"/>
		</defs>
		<clipPath id="SVGID_12_">
			<use xlink:href="#SVGID_11_"  overflow="visible"/>
		</clipPath>
		<path clip-path="url(#SVGID_12_)" fill="#2F2F31" d="M112.019,56.631l3.474-3.466c-0.023-0.21-0.034-0.423-0.034-0.636
			l0.004,0.001c-0.004-1.572,0.612-3.046,1.717-4.151l7.432-7.409c1.123-1.121,2.613-1.735,4.198-1.735
			c1.582,0.003,3.072,0.622,4.19,1.746c1.121,1.118,1.734,2.61,1.734,4.194c-0.003,1.586-0.622,3.072-1.741,4.194l-7.434,7.41
			c-1.269,1.266-3.021,1.869-4.789,1.678l-3.475,3.465c-0.788-0.958-1.625-1.884-2.51-2.772
			C113.897,58.26,112.974,57.421,112.019,56.631"/>
	</g>
</g>
<path fill="#CA9862" d="M87.5,124.744v-2.789h0.021c9.525,0.012,18.481-3.688,25.225-10.414c6.743-6.725,10.464-15.67,10.473-25.197
	c0.011-9.521-3.685-18.479-10.411-25.223c-6.727-6.742-15.674-10.458-25.199-10.475c-0.034,0-0.069,0.004-0.107,0.004v-2.791
	c0.038,0,0.075-0.004,0.113-0.004c1.348,0,2.687,0.076,4.009,0.214c7.521,0.784,14.566,3.738,20.397,8.562
	c0.955,0.79,1.877,1.629,2.767,2.518c0.885,0.89,1.722,1.815,2.51,2.773c4.808,5.842,7.746,12.893,8.51,20.416
	c0.134,1.323,0.208,2.661,0.206,4.01c-0.003,1.35-0.078,2.688-0.216,4.01c-0.785,7.521-3.739,14.566-8.562,20.396
	c-0.79,0.955-1.627,1.879-2.517,2.766s-1.814,1.723-2.771,2.512c-5.843,4.809-12.893,7.742-20.414,8.51
	c-1.327,0.135-2.663,0.205-4.014,0.205C87.518,124.746,87.506,124.744,87.5,124.744"/>
<path fill="#2F2F31" d="M112.806,61.121c6.727,6.743,10.423,15.701,10.411,25.223c-0.009,9.527-3.729,18.472-10.474,25.197
	c-6.742,6.727-15.698,10.426-25.223,10.414H87.5V97.802c0.019,0,0.035,0.002,0.052,0.002c1.166,0.002,2.294-0.174,3.356-0.498
	c0.063,1.135,0.125,2.273,0.18,3.418l0.108,2.213c0.073,1.922,0.208,3.873,0.338,5.762c0.178,2.525,0.36,5.139,0.384,7.623
	c-0.003,0.342-0.015,0.693-0.021,1.035c5.497-0.754,10.644-2.943,15.009-6.379L92.596,96.632c2.294-1.123,4.16-2.984,5.288-5.279
	l14.312,14.348c3.448-4.357,5.648-9.5,6.417-14.992c-0.348,0.004-0.701,0.016-1.048,0.016c-2.477-0.027-5.085-0.217-7.608-0.398
	c-1.89-0.137-3.842-0.278-5.778-0.357l-2.199-0.111c-1.147-0.058-2.285-0.123-3.416-0.188c0.324-1.063,0.504-2.188,0.504-3.356
	c0.005-1.166-0.172-2.289-0.494-3.352c1.133-0.064,2.271-0.126,3.415-0.182l2.215-0.107c1.92-0.073,3.873-0.21,5.766-0.339
	c2.521-0.177,5.132-0.36,7.618-0.382c0.343,0.001,0.69,0.015,1.038,0.019c-0.757-5.495-2.944-10.642-6.381-15.009L97.896,81.271
	c-1.123-2.297-2.984-4.16-5.277-5.287l14.348-14.313c-4.358-3.446-9.503-5.647-14.992-6.415c0.002,0.347,0.014,0.702,0.014,1.049
	c-0.025,2.471-0.215,5.084-0.396,7.607c-0.139,1.888-0.279,3.839-0.355,5.777l-0.118,2.197c-0.054,1.146-0.115,2.287-0.182,3.42
	c-1.063-0.328-2.188-0.505-3.356-0.507c-0.026,0-0.055,0.003-0.08,0.003V50.65c0.037,0,0.073-0.004,0.108-0.004
	C97.132,50.663,106.08,54.379,112.806,61.121"/>
<g opacity="0.29">
	<g>
		<defs>
			<rect id="SVGID_13_" x="87.499" y="50.643" width="35.72" height="71.31"/>
		</defs>
		<clipPath id="SVGID_14_">
			<use xlink:href="#SVGID_13_"  overflow="visible"/>
		</clipPath>
		<path clip-path="url(#SVGID_14_)" fill="#2F2F31" d="M112.806,61.121c6.727,6.743,10.423,15.701,10.411,25.223
			c-0.009,9.527-3.729,18.472-10.474,25.197c-6.742,6.727-15.698,10.426-25.223,10.414H87.5V97.802c0.019,0,0.035,0.002,0.052,0.002
			c1.166,0.002,2.294-0.174,3.356-0.498c0.063,1.135,0.125,2.273,0.18,3.418l0.108,2.213c0.073,1.922,0.208,3.873,0.338,5.762
			c0.178,2.525,0.36,5.139,0.384,7.623c-0.003,0.342-0.015,0.693-0.021,1.035c5.497-0.754,10.644-2.943,15.009-6.379L92.596,96.632
			c2.294-1.123,4.16-2.984,5.288-5.279l14.312,14.348c3.448-4.357,5.648-9.5,6.417-14.992c-0.348,0.004-0.701,0.016-1.048,0.016
			c-2.477-0.027-5.085-0.217-7.608-0.398c-1.89-0.137-3.842-0.278-5.778-0.357l-2.199-0.111c-1.147-0.058-2.285-0.123-3.416-0.188
			c0.324-1.063,0.504-2.188,0.504-3.356c0.005-1.166-0.172-2.289-0.494-3.352c1.133-0.064,2.271-0.126,3.415-0.182l2.215-0.107
			c1.92-0.073,3.873-0.21,5.766-0.339c2.521-0.177,5.132-0.36,7.618-0.382c0.343,0.001,0.69,0.015,1.038,0.019
			c-0.757-5.495-2.944-10.642-6.381-15.009L97.896,81.271c-1.123-2.297-2.984-4.16-5.277-5.287l14.348-14.313
			c-4.358-3.446-9.503-5.647-14.992-6.415c0.002,0.347,0.014,0.702,0.014,1.049c-0.025,2.471-0.215,5.084-0.396,7.607
			c-0.139,1.888-0.279,3.839-0.355,5.777l-0.118,2.197c-0.054,1.146-0.115,2.287-0.182,3.42c-1.063-0.328-2.188-0.505-3.356-0.507
			c-0.026,0-0.055,0.003-0.08,0.003V50.65c0.037,0,0.073-0.004,0.108-0.004C97.132,50.663,106.08,54.379,112.806,61.121"/>
	</g>
</g>
<path fill="#CA9862" d="M90.936,75.307c0.584,0.179,1.143,0.411,1.684,0.678c2.292,1.127,4.153,2.991,5.276,5.288
	c0.268,0.542,0.497,1.103,0.677,1.688c0.322,1.063,0.499,2.187,0.494,3.353c0,1.168-0.18,2.293-0.504,3.354
	c-0.18,0.584-0.413,1.144-0.679,1.685c-1.128,2.295-2.994,4.156-5.288,5.279c-0.544,0.264-1.104,0.494-1.688,0.674
	c-1.063,0.324-2.19,0.5-3.356,0.498c-0.017,0-0.033-0.002-0.052-0.002v-6.084c0.021,0,0.04,0.002,0.059,0.002
	c0.045,0,0.088-0.004,0.133-0.008c2.881-0.064,5.218-2.391,5.288-5.276c0-0.041,0.008-0.084,0.008-0.128
	c0-0.045-0.008-0.087-0.008-0.132c-0.068-2.886-2.394-5.214-5.276-5.287c-0.045-0.001-0.088-0.008-0.133-0.008
	c-0.023,0-0.047,0.002-0.07,0.004v-6.083c0.025,0,0.054-0.003,0.08-0.003C88.748,74.802,89.875,74.979,90.936,75.307"/>
<path fill="#065769" d="M89.762,86.302c-0.002,1.212-0.985,2.2-2.199,2.196c-0.021,0-0.042-0.006-0.063-0.007v-4.382
	c0.023-0.001,0.045-0.007,0.068-0.007C88.779,84.104,89.765,85.092,89.762,86.302"/>
<g opacity="0.65">
	<g>
		<defs>
			<rect id="SVGID_15_" x="87.499" y="47.853" width="38.513" height="76.889"/>
		</defs>
		<clipPath id="SVGID_16_">
			<use xlink:href="#SVGID_15_"  overflow="visible"/>
		</clipPath>
		<path clip-path="url(#SVGID_16_)" fill="#CA9862" d="M87.5,124.744v-2.789h0.021c9.525,0.012,18.481-3.688,25.225-10.414
			c6.743-6.725,10.464-15.67,10.473-25.197c0.011-9.521-3.685-18.479-10.411-25.223c-6.727-6.742-15.674-10.458-25.199-10.475
			c-0.034,0-0.069,0.004-0.107,0.004v-2.791c0.038,0,0.075-0.004,0.113-0.004c1.348,0,2.687,0.076,4.009,0.214
			c7.521,0.784,14.566,3.738,20.397,8.562c0.955,0.79,1.877,1.629,2.767,2.518c0.885,0.89,1.722,1.815,2.51,2.773
			c4.808,5.842,7.746,12.893,8.51,20.416c0.134,1.323,0.208,2.661,0.206,4.01c-0.003,1.35-0.078,2.688-0.216,4.01
			c-0.785,7.521-3.739,14.566-8.562,20.396c-0.79,0.955-1.627,1.879-2.517,2.766s-1.814,1.723-2.771,2.512
			c-5.843,4.809-12.893,7.742-20.414,8.51c-1.327,0.135-2.663,0.205-4.014,0.205C87.518,124.746,87.506,124.744,87.5,124.744"/>
	</g>
</g>
<g opacity="0.65">
	<g>
		<defs>
			<rect id="SVGID_17_" x="87.499" y="74.803" width="11.568" height="23"/>
		</defs>
		<clipPath id="SVGID_18_">
			<use xlink:href="#SVGID_17_"  overflow="visible"/>
		</clipPath>
		<path clip-path="url(#SVGID_18_)" fill="#CA9862" d="M90.936,75.307c0.584,0.179,1.143,0.411,1.684,0.678
			c2.292,1.127,4.153,2.991,5.276,5.288c0.268,0.542,0.497,1.103,0.677,1.688c0.322,1.063,0.499,2.187,0.494,3.353
			c0,1.168-0.18,2.293-0.504,3.354c-0.18,0.584-0.413,1.144-0.679,1.685c-1.128,2.295-2.994,4.156-5.288,5.279
			c-0.544,0.264-1.104,0.494-1.688,0.674c-1.063,0.324-2.19,0.5-3.356,0.498c-0.017,0-0.033-0.002-0.052-0.002v-6.084
			c0.021,0,0.04,0.002,0.059,0.002c0.045,0,0.088-0.004,0.133-0.008c2.881-0.064,5.218-2.391,5.288-5.276
			c0-0.041,0.008-0.084,0.008-0.128c0-0.045-0.008-0.087-0.008-0.132c-0.068-2.886-2.394-5.214-5.276-5.287
			c-0.045-0.001-0.088-0.008-0.133-0.008c-0.023,0-0.047,0.002-0.07,0.004v-6.083c0.025,0,0.054-0.003,0.08-0.003
			C88.748,74.802,89.875,74.979,90.936,75.307"/>
	</g>
</g>
</svg>
