<?xml version="1.0" encoding="utf-8"?>
<!-- Generator: Adobe Illustrator 16.0.0, SVG Export Plug-In . SVG Version: 6.00 Build 0)  -->
<!DOCTYPE svg PUBLIC "-//W3C//DTD SVG 1.1//EN" "http://www.w3.org/Graphics/SVG/1.1/DTD/svg11.dtd">
<svg version="1.1" id="Layer_1" xmlns="http://www.w3.org/2000/svg" xmlns:xlink="http://www.w3.org/1999/xlink" x="0px" y="0px"
	 width="96.211px" height="96.37px" viewBox="0 0 96.211 96.37" enable-background="new 0 0 96.211 96.37" xml:space="preserve">
<path fill="#AFC4D5" d="M96.372,48.105c0,26.567-21.537,48.105-48.105,48.105S0.161,74.672,0.161,48.105
	C0.161,21.537,21.698,0,48.266,0S96.372,21.537,96.372,48.105"/>
<g>
	<defs>
		<path id="SVGID_1_" d="M0,48.264C0,74.831,21.538,96.37,48.107,96.37c26.567,0,48.104-21.539,48.104-48.106
			S74.674,0.159,48.107,0.159C21.538,0.159,0,21.696,0,48.264"/>
	</defs>
	<clipPath id="SVGID_2_">
		<use xlink:href="#SVGID_1_"  overflow="visible"/>
	</clipPath>
	<path clip-path="url(#SVGID_2_)" fill="#2F2F31" d="M67.117,77.421h-8.135c-0.525,0-0.952-0.428-0.952-0.953V53.016h10.039v23.452
		C68.069,76.993,67.642,77.421,67.117,77.421"/>
	<polygon clip-path="url(#SVGID_2_)" fill="#87A24E" points="71.06,48.382 79.765,50.441 68.049,33.5 75.414,35.241 62.873,17.108 
		50.46,35.33 57.814,33.536 46.218,50.561 54.909,48.44 42.414,66.783 63.032,71.069 83.685,66.638 	"/>
	<g opacity="0.2" clip-path="url(#SVGID_2_)">
		<g>
			<defs>
				<rect id="SVGID_3_" x="63.049" y="17.365" width="20.635" height="60.06"/>
			</defs>
			<clipPath id="SVGID_4_">
				<use xlink:href="#SVGID_3_"  overflow="visible"/>
			</clipPath>
			<path clip-path="url(#SVGID_4_)" fill="#040505" d="M71.06,48.382l8.705,2.059L68.049,33.5l7.364,1.741L63.049,17.362v58.711
				c0,0.744,0.603,1.348,1.347,1.348h2.326c0.743,0,1.347-0.604,1.347-1.348v-6.134l15.616-3.302L71.06,48.382z"/>
		</g>
	</g>
	<path clip-path="url(#SVGID_2_)" fill="#2F2F31" d="M62.877,17.108l12.541,18.133L68.053,33.5L79.77,50.441l-8.706-2.059
		l12.625,18.255l-20.653,4.432l-20.617-4.286L54.913,48.44l-8.689,2.12l11.596-17.024l-7.354,1.794L62.877,17.108 M62.877,15.299
		h-0.006c-0.597,0.002-1.153,0.298-1.489,0.791L48.969,34.313c-0.421,0.619-0.418,1.433,0.009,2.049
		c0.343,0.495,0.902,0.778,1.487,0.778c0.141,0,0.285-0.017,0.428-0.052l2.779-0.678l-8.945,13.132
		c-0.421,0.619-0.418,1.435,0.008,2.05c0.343,0.494,0.903,0.777,1.488,0.777c0.141,0,0.285-0.016,0.427-0.051l4.118-1.004
		l-9.845,14.451c-0.34,0.5-0.408,1.137-0.183,1.695c0.227,0.562,0.719,0.971,1.31,1.094l20.618,4.287
		c0.121,0.023,0.244,0.036,0.367,0.036c0.128,0,0.255-0.013,0.38-0.04l20.653-4.432c0.591-0.127,1.079-0.541,1.302-1.102
		c0.223-0.563,0.149-1.198-0.194-1.695L75.23,51.226l4.124,0.975c0.138,0.034,0.277,0.049,0.416,0.049
		c0.587,0,1.152-0.287,1.494-0.789c0.422-0.617,0.419-1.432-0.007-2.049l-9.038-13.067l2.783,0.658
		c0.139,0.032,0.278,0.049,0.416,0.049c0.59,0,1.152-0.289,1.494-0.79c0.422-0.618,0.42-1.433-0.006-2.048L64.366,16.079
		C64.028,15.59,63.471,15.299,62.877,15.299"/>
	<g opacity="0.2" clip-path="url(#SVGID_2_)">
		<g>
			<defs>
				<rect id="SVGID_5_" x="62.752" y="17.064" width="21.237" height="60.66"/>
			</defs>
			<clipPath id="SVGID_6_">
				<use xlink:href="#SVGID_5_"  overflow="visible"/>
			</clipPath>
			
				<path clip-path="url(#SVGID_6_)" fill="none" stroke="#2F2F31" stroke-width="0.603" stroke-linecap="round" stroke-linejoin="round" stroke-miterlimit="10" d="
				M63.053,76.073c0,0.743,0.604,1.348,1.347,1.348h2.327c0.743,0,1.346-0.604,1.346-1.348v-6.135l15.616-3.302L71.064,48.383
				l8.705,2.058L68.053,33.5l7.366,1.741L63.053,17.363"/>
		</g>
	</g>
	<path clip-path="url(#SVGID_2_)" fill="#2F2F31" d="M48.524,77.421h-6.93c-0.526,0-0.952-0.428-0.952-0.953V55.944h8.833v20.523
		C49.475,76.993,49.048,77.421,48.524,77.421"/>
	<polygon clip-path="url(#SVGID_2_)" fill="#87A24E" points="52.107,51.868 59.768,53.68 49.458,38.772 55.94,40.306 44.904,24.349 
		33.981,40.384 40.452,38.806 30.249,53.784 37.895,51.919 26.901,68.06 45.044,71.788 63.216,67.931 	"/>
	<g opacity="0.2" clip-path="url(#SVGID_2_)">
		<g>
			<defs>
				<rect id="SVGID_7_" x="45.058" y="24.575" width="18.158" height="52.85"/>
			</defs>
			<clipPath id="SVGID_8_">
				<use xlink:href="#SVGID_7_"  overflow="visible"/>
			</clipPath>
			<path clip-path="url(#SVGID_8_)" fill="#040505" d="M52.107,51.868l7.661,1.812L49.458,38.772l6.482,1.533L45.059,24.573v51.5
				c0,0.743,0.603,1.348,1.346,1.348h1.724c0.744,0,1.347-0.604,1.347-1.348v-5.211l13.741-2.932L52.107,51.868z"/>
		</g>
	</g>
	<path clip-path="url(#SVGID_2_)" fill="#2F2F31" d="M44.909,24.35l11.035,15.956l-6.481-1.533l10.31,14.907l-7.66-1.812
		L63.22,67.932l-18.173,3.856l-18.143-3.728l10.995-16.142l-7.647,1.865l10.203-14.979l-6.471,1.578L44.909,24.35 M44.909,22.54
		h-0.007c-0.597,0.002-1.153,0.298-1.489,0.791L32.491,39.364c-0.422,0.619-0.418,1.434,0.008,2.049
		c0.343,0.495,0.902,0.778,1.486,0.778c0.143,0,0.287-0.016,0.43-0.051l1.896-0.462l-7.553,11.088
		c-0.421,0.619-0.418,1.433,0.008,2.048c0.342,0.495,0.903,0.779,1.487,0.779c0.142,0,0.286-0.017,0.428-0.052l3.074-0.75
		l-8.345,12.25c-0.341,0.5-0.409,1.138-0.181,1.697c0.227,0.562,0.719,0.971,1.312,1.094l18.142,3.728
		c0.121,0.024,0.243,0.037,0.365,0.037c0.126,0,0.252-0.015,0.375-0.04L63.595,69.7c0.593-0.126,1.083-0.539,1.308-1.101
		c0.223-0.563,0.15-1.2-0.193-1.697l-8.432-12.19l3.078,0.728c0.139,0.034,0.277,0.049,0.416,0.049c0.589,0,1.152-0.289,1.493-0.789
		c0.423-0.618,0.421-1.433-0.005-2.049l-7.632-11.034l1.899,0.449c0.139,0.033,0.276,0.048,0.416,0.048
		c0.589,0,1.152-0.288,1.494-0.789c0.422-0.618,0.42-1.432-0.007-2.049L46.396,23.319C46.058,22.832,45.502,22.54,44.909,22.54"/>
	<g opacity="0.2" clip-path="url(#SVGID_2_)">
		<g>
			<defs>
				<rect id="SVGID_9_" x="44.761" y="24.274" width="18.761" height="53.45"/>
			</defs>
			<clipPath id="SVGID_10_">
				<use xlink:href="#SVGID_9_"  overflow="visible"/>
			</clipPath>
			
				<path clip-path="url(#SVGID_10_)" fill="none" stroke="#2F2F31" stroke-width="0.603" stroke-linecap="round" stroke-linejoin="round" stroke-miterlimit="10" d="
				M45.063,76.073c0,0.743,0.603,1.348,1.347,1.348h1.724c0.742,0,1.347-0.604,1.347-1.348v-5.211l13.741-2.932L52.112,51.868
				l7.66,1.811l-10.31-14.906l6.481,1.532L45.063,24.573"/>
		</g>
	</g>
	<path clip-path="url(#SVGID_2_)" fill="#2F2F31" d="M30.89,77.421h-5.655c-0.526,0-0.952-0.428-0.952-0.953V59.042h7.559v17.426
		C31.842,76.993,31.416,77.421,30.89,77.421"/>
	<polygon clip-path="url(#SVGID_2_)" fill="#87A24E" points="34.094,55.554 40.65,57.104 31.827,44.347 37.374,45.658 27.93,32.003 
		18.582,45.725 24.12,44.374 15.388,57.194 21.933,55.597 12.524,69.41 28.049,72.199 43.601,69.3 	"/>
	<g opacity="0.2" clip-path="url(#SVGID_2_)">
		<g>
			<defs>
				<rect id="SVGID_11_" x="28.067" y="32.194" width="15.539" height="45.23"/>
			</defs>
			<clipPath id="SVGID_12_">
				<use xlink:href="#SVGID_11_"  overflow="visible"/>
			</clipPath>
			<path clip-path="url(#SVGID_12_)" fill="#040505" d="M34.099,55.554l6.556,1.551l-8.824-12.757l5.547,1.311l-9.311-13.463v43.879
				c0,0.743,0.602,1.346,1.346,1.346H30.5c0.744,0,1.346-0.603,1.346-1.346v-4.286l11.76-2.488L34.099,55.554z"/>
		</g>
	</g>
	<path clip-path="url(#SVGID_2_)" fill="#2F2F31" d="M27.934,32.004l9.444,13.655l-5.547-1.312l8.824,12.757l-6.556-1.55
		L43.606,69.3l-15.553,2.898l-15.525-2.787l9.409-13.814l-6.544,1.598l8.731-12.819l-5.537,1.35L27.934,32.004 M27.934,30.195
		h-0.006c-0.597,0.002-1.153,0.298-1.489,0.79l-9.347,13.723c-0.422,0.618-0.418,1.432,0.008,2.048
		c0.344,0.495,0.902,0.779,1.487,0.779c0.142,0,0.286-0.018,0.429-0.052l0.963-0.235l-6.082,8.927
		c-0.421,0.62-0.418,1.434,0.009,2.049c0.342,0.494,0.902,0.779,1.487,0.779c0.142,0,0.285-0.018,0.428-0.053l1.97-0.48
		l-6.758,9.922c-0.345,0.508-0.411,1.154-0.173,1.719c0.237,0.564,0.744,0.973,1.347,1.08l15.527,2.788
		c0.106,0.021,0.213,0.029,0.319,0.029c0.111,0,0.223-0.01,0.332-0.031l15.553-2.897c0.601-0.113,1.107-0.523,1.34-1.09
		c0.234-0.566,0.164-1.215-0.184-1.719l-6.829-9.873l1.974,0.467c0.137,0.032,0.277,0.049,0.416,0.049
		c0.588,0,1.152-0.288,1.494-0.789c0.422-0.618,0.419-1.434-0.007-2.049l-6.145-8.884l0.965,0.229
		c0.138,0.032,0.279,0.047,0.416,0.047c0.589,0,1.153-0.288,1.494-0.789c0.422-0.618,0.419-1.432-0.006-2.048l-9.444-13.655
		C29.084,30.486,28.528,30.195,27.934,30.195"/>
	<g opacity="0.2" clip-path="url(#SVGID_2_)">
		<g>
			<defs>
				<rect id="SVGID_13_" x="27.765" y="31.895" width="16.142" height="45.83"/>
			</defs>
			<clipPath id="SVGID_14_">
				<use xlink:href="#SVGID_13_"  overflow="visible"/>
			</clipPath>
			
				<path clip-path="url(#SVGID_14_)" fill="none" stroke="#2F2F31" stroke-width="0.603" stroke-linecap="round" stroke-linejoin="round" stroke-miterlimit="10" d="
				M28.067,76.073c0,0.743,0.603,1.348,1.347,1.348h1.087c0.743,0,1.345-0.604,1.345-1.348v-4.285l11.76-2.487l-9.507-13.747
				l6.556,1.55l-8.823-12.757l5.547,1.312l-9.312-13.464"/>
		</g>
	</g>
</g>
</svg>
