<?xml version="1.0" encoding="utf-8"?>
<!-- Generator: Adobe Illustrator 16.0.0, SVG Export Plug-In . SVG Version: 6.00 Build 0)  -->
<!DOCTYPE svg PUBLIC "-//W3C//DTD SVG 1.1//EN" "http://www.w3.org/Graphics/SVG/1.1/DTD/svg11.dtd">
<svg version="1.1" id="Layer_1" xmlns="http://www.w3.org/2000/svg" xmlns:xlink="http://www.w3.org/1999/xlink" x="0px" y="0px"
	 width="96.21px" height="96.21px" viewBox="0 0 96.21 96.21" enable-background="new 0 0 96.21 96.21" xml:space="preserve">
<g>
	<defs>
		<path id="SVGID_1_" d="M0,48.104c0,26.569,21.538,48.106,48.105,48.106c26.568,0,48.105-21.537,48.105-48.106
			C96.21,21.537,74.673,0,48.105,0C21.538,0,0,21.537,0,48.104"/>
	</defs>
	<clipPath id="SVGID_2_">
		<use xlink:href="#SVGID_1_"  overflow="visible"/>
	</clipPath>
	<path clip-path="url(#SVGID_2_)" fill="#3D3D3C" d="M96.21,48.105c0,26.567-21.537,48.104-48.104,48.104
		C21.537,96.21,0,74.673,0,48.105C0,21.537,21.537,0.002,48.106,0.002C74.673,0.002,96.21,21.537,96.21,48.105"/>
	
		<rect x="57.011" y="12.259" transform="matrix(0.9765 0.2156 -0.2156 0.9765 4.2944 -12.3503)" clip-path="url(#SVGID_2_)" fill="#ECECEC" width="3.506" height="2.505"/>
	<path clip-path="url(#SVGID_2_)" fill="#AFC4D5" d="M60.208,15.111l-3.427-0.755l-1.467-0.323l-0.86,3.913l1.467,0.324
		l-0.252,1.142l-3.259,14.792c-4.255,0.129-8.04,3.119-8.999,7.464l-7.366,33.433c-0.566,2.566,4.368,4.999,9.587,6.15
		L60.208,15.111z"/>
	
		<rect x="60.437" y="13.014" transform="matrix(-0.9766 -0.215 0.215 -0.9766 119.8561 41.5718)" clip-path="url(#SVGID_2_)" fill="#DEDEDD" width="3.506" height="2.505"/>
	<path clip-path="url(#SVGID_2_)" fill="#A2B6C7" d="M60.208,15.111l3.424,0.755l1.467,0.322l-0.862,3.914l-1.468-0.323
		l-0.252,1.144l-3.259,14.789c3.804,1.905,5.982,6.212,5.024,10.557l-7.366,33.433c-0.565,2.565-6.065,2.699-11.284,1.55
		L60.208,15.111z"/>
	<path clip-path="url(#SVGID_2_)" fill="#48728B" d="M96.645,61.003c-4.468,0-8.092-3.622-8.092-8.09c0,4.468-3.619,8.09-8.09,8.09
		c-4.467,0-8.089-3.622-8.089-8.09c0,4.468-3.623,8.09-8.089,8.09c-4.468,0-8.09-3.622-8.09-8.09c0,4.468-3.622,8.09-8.09,8.09
		s-8.091-3.622-8.091-8.09c0,4.468-3.622,8.09-8.089,8.09c-4.467,0-8.091-3.622-8.091-8.09c0,4.468-3.621,8.09-8.089,8.09
		s-8.089-3.622-8.089-8.09c0,4.468-3.623,8.09-8.09,8.09c-4.468,0-8.091-3.622-8.091-8.09V96.21h113.26V52.913
		C104.736,57.381,101.113,61.003,96.645,61.003"/>
</g>
<path fill="none" d="M-249.127-322.221"/>
<path fill="none" d="M-249.126-322.222"/>
<path fill="none" d="M-249.093-325.596"/>
<path fill="none" d="M550.907,474.404"/>
<path fill="none" d="M550.91,474.404"/>
<path fill="none" d="M-249.093-325.592"/>
</svg>
