<?xml version="1.0" encoding="utf-8"?>
<!-- Generator: Adobe Illustrator 16.0.0, SVG Export Plug-In . SVG Version: 6.00 Build 0)  -->
<!DOCTYPE svg PUBLIC "-//W3C//DTD SVG 1.1//EN" "http://www.w3.org/Graphics/SVG/1.1/DTD/svg11.dtd">
<svg version="1.1" id="Layer_1" xmlns="http://www.w3.org/2000/svg" xmlns:xlink="http://www.w3.org/1999/xlink" x="0px" y="0px"
	 width="175.001px" height="177px" viewBox="0 0 175.001 177" enable-background="new 0 0 175.001 177" xml:space="preserve">
<path fill="#E5E5E5" d="M175.001,91c0,47.496-38.503,86-86,86c-47.496,0-86-38.504-86-86c0-47.497,38.504-86,86-86
	C136.498,5,175.001,43.503,175.001,91"/>
<path fill="#AFC4D5" d="M172.001,86c0,47.496-38.503,86-86,86c-47.496,0-86-38.504-86-86c0-47.497,38.504-86,86-86
	C133.498,0,172.001,38.503,172.001,86"/>
<g opacity="0.5">
	<g>
		<defs>
			<rect id="SVGID_1_" x="25.19" y="25.192" width="146.811" height="146.811"/>
		</defs>
		<clipPath id="SVGID_2_">
			<use xlink:href="#SVGID_1_"  overflow="visible"/>
		</clipPath>
		<path clip-path="url(#SVGID_2_)" fill="#010101" d="M146.813,25.188c33.585,33.585,33.585,88.038,0,121.622
			c-33.585,33.586-88.037,33.586-121.623,0"/>
	</g>
</g>
<g>
	<defs>
		<path id="SVGID_3_" d="M0,86c0,47.496,38.503,86,86,86c47.496,0,86.001-38.504,86.001-86c0-47.497-38.505-86-86.001-86
			C38.503,0,0,38.503,0,86"/>
	</defs>
	<clipPath id="SVGID_4_">
		<use xlink:href="#SVGID_3_"  overflow="visible"/>
	</clipPath>
</g>
<g>
	<defs>
		<polygon id="SVGID_5_" points="38.215,109.552 38.215,127.958 133.787,127.958 133.787,109.552 86,37.19 		"/>
	</defs>
	<clipPath id="SVGID_6_">
		<use xlink:href="#SVGID_5_"  overflow="visible"/>
	</clipPath>
	<rect x="33.481" y="32.457" clip-path="url(#SVGID_6_)" fill="#CA9862" width="105.038" height="100.232"/>
</g>
<g>
	<defs>
		<path id="SVGID_7_" d="M71.946,101.984v25.975h28.108v-25.975c0-7.742-6.292-14.019-14.055-14.019S71.946,94.242,71.946,101.984"
			/>
	</defs>
	<clipPath id="SVGID_8_">
		<use xlink:href="#SVGID_7_"  overflow="visible"/>
	</clipPath>
	<rect x="67.212" y="83.231" clip-path="url(#SVGID_8_)" fill="#523C2D" width="37.577" height="49.458"/>
</g>
<g>
	<defs>
		<path id="SVGID_9_" d="M27.893,124.746l63.071-95.034L27.893,124.746z"/>
	</defs>
	<clipPath id="SVGID_10_">
		<use xlink:href="#SVGID_9_"  overflow="visible"/>
	</clipPath>
	<rect x="23.16" y="24.979" clip-path="url(#SVGID_10_)" fill="#CA9862" width="72.536" height="104.499"/>
</g>
<g>
	<defs>
		<path id="SVGID_11_" d="M27.11,127.623v-12.584V127.623z"/>
	</defs>
	<clipPath id="SVGID_12_">
		<use xlink:href="#SVGID_11_"  overflow="visible"/>
	</clipPath>
	<rect x="22.377" y="110.306" clip-path="url(#SVGID_12_)" fill="#CA9862" width="9.466" height="22.049"/>
</g>
<g>
	<defs>
		<path id="SVGID_13_" d="M144.107,124.746L81.038,29.712L144.107,124.746z"/>
	</defs>
	<clipPath id="SVGID_14_">
		<use xlink:href="#SVGID_13_"  overflow="visible"/>
	</clipPath>
	<rect x="76.304" y="24.979" clip-path="url(#SVGID_14_)" fill="#CA9862" width="72.537" height="104.499"/>
</g>
<g>
	<defs>
		<path id="SVGID_15_" d="M144.891,127.623v-12.584V127.623z"/>
	</defs>
	<clipPath id="SVGID_16_">
		<use xlink:href="#SVGID_15_"  overflow="visible"/>
	</clipPath>
	<rect x="140.157" y="110.306" clip-path="url(#SVGID_16_)" fill="#CA9862" width="9.467" height="22.049"/>
</g>
<g>
	<defs>
		<path id="SVGID_17_" d="M86,87.965V37.19V87.965z"/>
	</defs>
	<clipPath id="SVGID_18_">
		<use xlink:href="#SVGID_17_"  overflow="visible"/>
	</clipPath>
	<rect x="81.267" y="32.457" clip-path="url(#SVGID_18_)" fill="#CA9862" width="9.467" height="60.24"/>
</g>
<g>
	<defs>
		<polygon id="SVGID_19_" points="112.573,127.623 133.787,127.958 133.787,109.552 86,37.19 		"/>
	</defs>
	<clipPath id="SVGID_20_">
		<use xlink:href="#SVGID_19_"  overflow="visible"/>
	</clipPath>
	<g opacity="0.2" clip-path="url(#SVGID_20_)">
		<g>
			<defs>
				<rect id="SVGID_21_" x="81.271" y="32.453" width="57.25" height="100.24"/>
			</defs>
			<clipPath id="SVGID_22_">
				<use xlink:href="#SVGID_21_"  overflow="visible"/>
			</clipPath>
			<rect x="81.267" y="32.457" clip-path="url(#SVGID_22_)" fill="#040505" width="57.253" height="100.232"/>
		</g>
	</g>
</g>
<g>
	<defs>
		<path id="SVGID_23_" d="M74.362,103.578c0-6.402,5.221-11.611,11.638-11.611c6.416,0,11.639,5.209,11.639,11.611v23.561H74.362
			V103.578z M40.629,111.865l42.955-65.042v40.522c-7.937,1.172-14.054,7.993-14.054,16.233v23.561H40.629V111.865z
			 M102.471,103.578c0-8.24-6.118-15.061-14.056-16.233V46.822l42.955,65.042v15.273h-28.899V103.578z M88.949,29.975L86,34.419
			l-2.949-4.444c-0.737-1.109-2.238-1.408-3.349-0.679c-1.111,0.733-1.417,2.229-0.681,3.34l4.081,6.147l-53.576,80.726v-2.879
			c0-1.33-1.082-2.408-2.416-2.408c-1.332,0-2.416,1.078-2.416,2.408v12.584c0,1.33,1.084,2.41,2.416,2.41
			c1.334,0,2.416-1.08,2.416-2.41v-1.107c0.14-0.131,0.271-0.273,0.383-0.441l5.889-8.873v10.756c0,1.33,1.082,2.41,2.416,2.41
			h33.732h28.108h33.732c1.332,0,2.415-1.08,2.415-2.41v-10.756l5.89,8.873c0.11,0.168,0.241,0.313,0.385,0.443v1.105
			c0,1.33,1.08,2.41,2.416,2.41c1.333,0,2.415-1.08,2.415-2.41V116.63c0-1.33-1.082-2.408-2.415-2.408
			c-1.336,0-2.416,1.078-2.416,2.408v2.881l-53.58-80.728l4.082-6.147c0.735-1.111,0.432-2.606-0.682-3.34
			c-0.41-0.271-0.873-0.401-1.33-0.401C90.184,28.895,89.415,29.274,88.949,29.975"/>
	</defs>
	<clipPath id="SVGID_24_">
		<use xlink:href="#SVGID_23_"  overflow="visible"/>
	</clipPath>
	<rect x="19.961" y="24.162" clip-path="url(#SVGID_24_)" fill="#2F2F31" width="132.08" height="112.529"/>
</g>
</svg>
