<?xml version="1.0" encoding="utf-8"?>
<!-- Generator: Adobe Illustrator 16.0.0, SVG Export Plug-In . SVG Version: 6.00 Build 0)  -->
<!DOCTYPE svg PUBLIC "-//W3C//DTD SVG 1.1//EN" "http://www.w3.org/Graphics/SVG/1.1/DTD/svg11.dtd">
<svg version="1.1" id="Layer_1" xmlns="http://www.w3.org/2000/svg" xmlns:xlink="http://www.w3.org/1999/xlink" x="0px" y="0px"
	 width="96.211px" height="98.333px" viewBox="0 0 96.211 98.333" enable-background="new 0 0 96.211 98.333" xml:space="preserve">
<path fill="#3D3D3C" d="M0,48.107C0,74.674,21.538,96.21,48.105,96.21c26.569,0,48.106-21.536,48.106-48.103
	C96.211,21.539,74.674,0,48.105,0C21.538,0,0,21.539,0,48.107"/>
<g>
	<defs>
		<path id="SVGID_1_" d="M0,48.107c0,26.567,21.537,48.104,48.106,48.104c26.568,0,48.105-21.537,48.105-48.104
			C96.211,21.539,74.674,0,48.106,0C21.537,0,0,21.539,0,48.107"/>
	</defs>
	<clipPath id="SVGID_2_">
		<use xlink:href="#SVGID_1_"  overflow="visible"/>
	</clipPath>
	<polygon clip-path="url(#SVGID_2_)" fill="#FBAD3D" points="88.586,22.656 54.919,22.656 54.919,15.177 88.586,3.749 	"/>
	<polygon clip-path="url(#SVGID_2_)" fill="#FBAD3D" points="7.625,22.656 41.292,22.656 41.292,15.177 7.625,3.749 	"/>
	<polygon clip-path="url(#SVGID_2_)" fill="#FFFFFF" points="34.989,98.333 48.708,98.333 48.708,25.324 39.976,25.324 	"/>
	<polygon clip-path="url(#SVGID_2_)" fill="#B13325" points="48.799,65.669 48.799,49.294 38.337,49.316 37.219,65.693 	"/>
	<polygon clip-path="url(#SVGID_2_)" fill="#B13325" points="48.617,35.296 48.617,25.324 39.976,25.324 39.292,35.334 	"/>
	<polygon clip-path="url(#SVGID_2_)" fill="#ECECEC" points="61.222,98.333 48.106,98.333 48.106,25.324 56.236,25.324 	"/>
	<path clip-path="url(#SVGID_2_)" fill="#3D3D3C" d="M48.121,44.023L48.121,44.023c0.917,0,1.663-0.747,1.663-1.663
		c0-0.917-0.746-1.663-1.663-1.663v-0.979c1.459,0,2.642,1.183,2.642,2.642s-1.183,2.642-2.642,2.642V44.023z"/>
	<polygon clip-path="url(#SVGID_2_)" fill="#822619" points="48.106,65.669 48.106,49.294 57.875,49.316 58.993,65.693 	"/>
	<polygon clip-path="url(#SVGID_2_)" fill="#822619" points="48.106,35.296 48.106,25.324 56.236,25.324 56.919,35.334 	"/>
	<path clip-path="url(#SVGID_2_)" fill="#868686" d="M48.121,44.023L48.121,44.023c-0.918,0-1.663-0.747-1.663-1.663
		c0-0.917,0.745-1.663,1.663-1.663v-0.979c-1.459,0-2.642,1.183-2.642,2.642s1.183,2.642,2.642,2.642V44.023z"/>
	<rect x="48.106" y="15.177" clip-path="url(#SVGID_2_)" fill="#7395A8" width="6.56" height="7.479"/>
	<path clip-path="url(#SVGID_2_)" fill="#3D3D3C" d="M49.189,15.176v7.266h-1.083v2.882h10.181c0.795,0,1.44-0.645,1.44-1.441
		c0-0.795-0.646-1.441-1.44-1.441h-2.051v-7.266c0-4.49-3.641-8.131-8.13-8.131v8.131H49.189z M51.354,15.176h2.716v7.266h-2.716
		V15.176z"/>
	<path clip-path="url(#SVGID_2_)" fill="#3D3D3C" d="M48.076,75.21L48.076,75.21c0.917,0,1.663-0.746,1.663-1.664
		c0-0.916-0.746-1.662-1.663-1.662v-0.979c1.458,0,2.642,1.182,2.642,2.641s-1.184,2.643-2.642,2.643V75.21z"/>
	<rect x="41.547" y="15.177" clip-path="url(#SVGID_2_)" fill="#89B0C8" width="6.559" height="7.479"/>
	<polygon clip-path="url(#SVGID_2_)" fill="#B13325" points="34.989,98.333 48.837,98.333 48.837,81.042 36.165,81.126 	"/>
	<path clip-path="url(#SVGID_2_)" fill="#868686" d="M36.484,23.883c0,0.796,0.645,1.441,1.441,1.441h10.181v-2.882h-1.083v-7.266
		h1.083V7.045c-4.49,0-8.13,3.641-8.13,8.131v7.266h-2.051C37.129,22.442,36.484,23.088,36.484,23.883 M44.857,22.442h-2.716v-7.266
		h2.716V22.442z"/>
	<polygon clip-path="url(#SVGID_2_)" fill="#822619" points="61.222,98.333 48.106,98.333 48.106,81.042 60.046,81.126 	"/>
	<path clip-path="url(#SVGID_2_)" fill="#868686" d="M48.114,75.21L48.114,75.21c-0.918,0-1.664-0.746-1.664-1.664
		c0-0.916,0.746-1.662,1.663-1.662h0.001v-0.979h-0.001c-1.458,0-2.642,1.182-2.642,2.641s1.184,2.643,2.642,2.643h0.001V75.21z"/>
</g>
</svg>
