<?xml version="1.0" encoding="utf-8"?>
<!-- Generator: Adobe Illustrator 16.0.0, SVG Export Plug-In . SVG Version: 6.00 Build 0)  -->
<!DOCTYPE svg PUBLIC "-//W3C//DTD SVG 1.1//EN" "http://www.w3.org/Graphics/SVG/1.1/DTD/svg11.dtd">
<svg version="1.1" id="Layer_1" xmlns="http://www.w3.org/2000/svg" xmlns:xlink="http://www.w3.org/1999/xlink" x="0px" y="0px"
	 width="174.999px" height="172px" viewBox="0 0 174.999 172" enable-background="new 0 0 174.999 172" xml:space="preserve">
<path fill="#E5E5E5" d="M174.999,91c0,47.496-38.502,86-86,86c-47.497,0-86-38.504-86-86C3,43.503,41.502,5,89,5
	C136.497,5,174.999,43.503,174.999,91"/>
<path fill="#58B947" d="M171.999,86c0,47.496-38.502,86-86,86c-47.497,0-86-38.504-86-86C0,38.503,38.502,0,86,0
	C133.497,0,171.999,38.503,171.999,86"/>
<path fill="#AFC4D5" d="M171.999,86c0,47.496-38.502,86-86,86c-47.497,0-86-38.504-86-86C0,38.503,38.502,0,86,0
	C133.497,0,171.999,38.503,171.999,86"/>
<g opacity="0.5">
	<g>
		<defs>
			<rect id="SVGID_1_" x="25.188" y="25.192" width="146.811" height="146.811"/>
		</defs>
		<clipPath id="SVGID_2_">
			<use xlink:href="#SVGID_1_"  overflow="visible"/>
		</clipPath>
		<path clip-path="url(#SVGID_2_)" fill="#010101" d="M146.811,25.188c33.585,33.585,33.585,88.038,0,121.622
			c-33.585,33.586-88.037,33.586-121.622,0"/>
	</g>
</g>
<g>
	<defs>
		<path id="SVGID_3_" d="M0,86c0,47.496,38.503,86,85.999,86C133.496,172,172,133.496,172,86c0-47.497-38.504-86-86.001-86
			C38.503,0,0,38.503,0,86"/>
	</defs>
	<clipPath id="SVGID_4_">
		<use xlink:href="#SVGID_3_"  overflow="visible"/>
	</clipPath>
</g>
<g>
	<defs>
		<rect id="SVGID_5_" x="117.06" y="87.403" width="7.556" height="8.688"/>
	</defs>
	<clipPath id="SVGID_6_">
		<use xlink:href="#SVGID_5_"  overflow="visible"/>
	</clipPath>
	<rect x="113.05" y="83.395" clip-path="url(#SVGID_6_)" fill="#FBAD3D" width="15.576" height="16.707"/>
</g>
<g>
	<defs>
		<rect id="SVGID_7_" x="124.616" y="83.505" width="6.584" height="12.586"/>
	</defs>
	<clipPath id="SVGID_8_">
		<use xlink:href="#SVGID_7_"  overflow="visible"/>
	</clipPath>
	<rect x="120.606" y="79.496" clip-path="url(#SVGID_8_)" fill="#F4E5C3" width="14.604" height="20.603"/>
</g>
<g>
	<defs>
		<path id="SVGID_9_" d="M54.939,68.857v54.179c0,5.443,4.393,9.855,9.809,9.855h42.501c5.416,0,9.809-4.412,9.809-9.855V68.857
			H54.939z"/>
	</defs>
	<clipPath id="SVGID_10_">
		<use xlink:href="#SVGID_9_"  overflow="visible"/>
	</clipPath>
	<rect x="50.93" y="64.849" clip-path="url(#SVGID_10_)" fill="#87A24E" width="70.139" height="72.055"/>
</g>
<g>
	<defs>
		<path id="SVGID_11_" d="M107.521,68.857v54.179c0,5.443-4.392,9.855-9.809,9.855h9.537c5.416,0,9.809-4.412,9.809-9.855V68.857
			H107.521z"/>
	</defs>
	<clipPath id="SVGID_12_">
		<use xlink:href="#SVGID_11_"  overflow="visible"/>
	</clipPath>
	<g opacity="0.2" clip-path="url(#SVGID_12_)">
		<g>
			<defs>
				<rect id="SVGID_13_" x="93.702" y="64.853" width="27.366" height="72.049"/>
			</defs>
			<clipPath id="SVGID_14_">
				<use xlink:href="#SVGID_13_"  overflow="visible"/>
			</clipPath>
			<rect x="93.702" y="64.849" clip-path="url(#SVGID_14_)" fill="#040505" width="27.366" height="72.053"/>
		</g>
	</g>
</g>
<g>
	<defs>
		<path id="SVGID_15_" d="M117.058,96.091v26.945c0,5.443-4.393,9.855-9.809,9.855h15.998c5.417,0,9.809-4.412,9.809-9.855V96.091
			H117.058z"/>
	</defs>
	<clipPath id="SVGID_16_">
		<use xlink:href="#SVGID_15_"  overflow="visible"/>
	</clipPath>
	<rect x="103.239" y="92.082" clip-path="url(#SVGID_16_)" fill="#87A24E" width="33.828" height="44.82"/>
</g>
<g>
	<defs>
		<path id="SVGID_17_" d="M124.881,96.091v26.945c0,5.443-4.392,9.855-9.809,9.855h8.175c5.416,0,9.809-4.412,9.809-9.855V96.091
			H124.881z"/>
	</defs>
	<clipPath id="SVGID_18_">
		<use xlink:href="#SVGID_17_"  overflow="visible"/>
	</clipPath>
	<g opacity="0.2" clip-path="url(#SVGID_18_)">
		<g>
			<defs>
				<rect id="SVGID_19_" x="111.062" y="92.083" width="26.004" height="44.818"/>
			</defs>
			<clipPath id="SVGID_20_">
				<use xlink:href="#SVGID_19_"  overflow="visible"/>
			</clipPath>
			<rect x="111.062" y="92.082" clip-path="url(#SVGID_20_)" fill="#040505" width="26.004" height="44.82"/>
		</g>
	</g>
</g>
<g>
	<defs>
		<path id="SVGID_21_" d="M38.942,96.091v26.945c0,5.443,4.392,9.855,9.809,9.855h15.998c-5.417,0-9.809-4.412-9.809-9.855V96.091
			H38.942z"/>
	</defs>
	<clipPath id="SVGID_22_">
		<use xlink:href="#SVGID_21_"  overflow="visible"/>
	</clipPath>
	<rect x="34.932" y="92.082" clip-path="url(#SVGID_22_)" fill="#87A24E" width="33.828" height="44.82"/>
</g>
<g>
	<defs>
		<path id="SVGID_23_" d="M52.894,43.81c-5.417,0-9.809,4.413-9.809,9.856v5.337c0,5.441,4.392,9.854,9.809,9.854h66.21
			c5.416,0,9.809-4.413,9.809-9.854v-5.337c0-5.443-4.393-9.856-9.809-9.856H52.894z"/>
	</defs>
	<clipPath id="SVGID_24_">
		<use xlink:href="#SVGID_23_"  overflow="visible"/>
	</clipPath>
	<rect x="39.075" y="39.801" clip-path="url(#SVGID_24_)" fill="#FBAD3D" width="93.85" height="33.068"/>
</g>
<g>
	<defs>
		<rect id="SVGID_25_" x="61.931" y="43.81" width="7.266" height="25.048"/>
	</defs>
	<clipPath id="SVGID_26_">
		<use xlink:href="#SVGID_25_"  overflow="visible"/>
	</clipPath>
	<rect x="57.921" y="39.801" clip-path="url(#SVGID_26_)" fill="#F4E5C3" width="15.286" height="33.067"/>
</g>
<g>
	<defs>
		<rect id="SVGID_27_" x="102.802" y="43.81" width="7.266" height="25.048"/>
	</defs>
	<clipPath id="SVGID_28_">
		<use xlink:href="#SVGID_27_"  overflow="visible"/>
	</clipPath>
	<rect x="98.791" y="39.801" clip-path="url(#SVGID_28_)" fill="#F4E5C3" width="15.286" height="33.067"/>
</g>
<g>
	<defs>
		<rect id="SVGID_29_" x="68.629" y="90.779" width="7.266" height="24.207"/>
	</defs>
	<clipPath id="SVGID_30_">
		<use xlink:href="#SVGID_29_"  overflow="visible"/>
	</clipPath>
	<rect x="64.619" y="86.769" clip-path="url(#SVGID_30_)" fill="#B3804D" width="15.286" height="32.229"/>
</g>
<g>
	<defs>
		<rect id="SVGID_31_" x="96.104" y="90.779" width="7.266" height="24.207"/>
	</defs>
	<clipPath id="SVGID_32_">
		<use xlink:href="#SVGID_31_"  overflow="visible"/>
	</clipPath>
	<rect x="92.095" y="86.769" clip-path="url(#SVGID_32_)" fill="#B3804D" width="15.285" height="32.229"/>
</g>
<g>
	<defs>
		<path id="SVGID_33_" d="M45.54,83.506c-2.789,0-5.05,2.27-5.05,5.072v7.511h14.449v-7.511c0-2.803-2.259-5.072-5.048-5.072H45.54z
			"/>
	</defs>
	<clipPath id="SVGID_34_">
		<use xlink:href="#SVGID_33_"  overflow="visible"/>
	</clipPath>
	<rect x="36.479" y="79.495" clip-path="url(#SVGID_34_)" fill="#F4E5C3" width="22.471" height="20.604"/>
</g>
<g>
	<defs>
		<path id="SVGID_35_" d="M54.94,68.857v24.169c0,5.443,4.392,9.855,9.809,9.855h3.88V90.779h7.266v12.104h20.208V90.779h7.267
			v12.104h3.88c5.417,0,9.809-4.412,9.809-9.855V68.857H54.94z"/>
	</defs>
	<clipPath id="SVGID_36_">
		<use xlink:href="#SVGID_35_"  overflow="visible"/>
	</clipPath>
	<rect x="50.93" y="64.849" clip-path="url(#SVGID_36_)" fill="#87A24E" width="70.139" height="42.043"/>
</g>
<g>
	<defs>
		<path id="SVGID_37_" d="M108.884,68.857v24.169c0,3.895-2.252,7.248-5.515,8.85v1.006h3.88c5.416,0,9.809-4.412,9.809-9.855
			V68.857H108.884z"/>
	</defs>
	<clipPath id="SVGID_38_">
		<use xlink:href="#SVGID_37_"  overflow="visible"/>
	</clipPath>
	<g opacity="0.2" clip-path="url(#SVGID_38_)">
		<g>
			<defs>
				<rect id="SVGID_39_" x="99.359" y="64.853" width="21.709" height="42.04"/>
			</defs>
			<clipPath id="SVGID_40_">
				<use xlink:href="#SVGID_39_"  overflow="visible"/>
			</clipPath>
			<rect x="99.359" y="64.849" clip-path="url(#SVGID_40_)" fill="#040505" width="21.709" height="42.043"/>
		</g>
	</g>
</g>
<g>
	<defs>
		<path id="SVGID_41_" d="M119.104,59.277h-66.21c-4.692,0-8.608-3.312-9.575-7.734c-0.15,0.685-0.234,1.393-0.234,2.123v5.337
			c0,5.441,4.392,9.854,9.809,9.854h66.21c5.416,0,9.809-4.413,9.809-9.854v-5.337c0-0.73-0.085-1.438-0.234-2.123
			C127.712,55.966,123.797,59.277,119.104,59.277"/>
	</defs>
	<clipPath id="SVGID_42_">
		<use xlink:href="#SVGID_41_"  overflow="visible"/>
	</clipPath>
	<g opacity="0.2" clip-path="url(#SVGID_42_)">
		<g>
			<defs>
				<rect id="SVGID_43_" x="39.075" y="47.533" width="93.848" height="25.34"/>
			</defs>
			<clipPath id="SVGID_44_">
				<use xlink:href="#SVGID_43_"  overflow="visible"/>
			</clipPath>
			<rect x="39.075" y="47.533" clip-path="url(#SVGID_44_)" fill="#040505" width="93.85" height="25.336"/>
		</g>
	</g>
</g>
<g>
	<defs>
		<path id="SVGID_45_" d="M46.766,83.771v39.266c0,5.443,4.392,9.855,9.809,9.855h8.174c-5.417,0-9.809-4.412-9.809-9.855V83.771
			H46.766z"/>
	</defs>
	<clipPath id="SVGID_46_">
		<use xlink:href="#SVGID_45_"  overflow="visible"/>
	</clipPath>
	<g opacity="0.2" clip-path="url(#SVGID_46_)">
		<g>
			<defs>
				<rect id="SVGID_47_" x="42.756" y="79.763" width="26.004" height="57.139"/>
			</defs>
			<clipPath id="SVGID_48_">
				<use xlink:href="#SVGID_47_"  overflow="visible"/>
			</clipPath>
			<rect x="42.756" y="79.762" clip-path="url(#SVGID_48_)" fill="#040505" width="26.003" height="57.142"/>
		</g>
	</g>
</g>
<path fill-rule="evenodd" clip-rule="evenodd" fill="#2F2F31" d="M133.243,95.414V84.862c0-1.134-0.915-2.054-2.043-2.054h-6.584
	c-1.128,0-2.044,0.92-2.044,2.054v1.846h-3.472V72.27h0.004c6.535,0,11.852-5.343,11.852-11.909v-5.338
	c0-6.566-5.316-11.909-11.852-11.909h-9.037h-7.266h-3.16c-0.948-4.602-5.012-8.072-9.87-8.072h-7.546
	c-4.857,0-8.921,3.471-9.869,8.072h-3.16h-7.266h-9.038c-6.535,0-11.852,5.343-11.852,11.909v5.338
	c0,6.566,5.317,11.909,11.852,11.909h0.004v11.236c-0.915-0.436-1.927-0.697-3.007-0.697h-4.351c-3.911,0-7.092,3.195-7.092,7.126
	v5.526c-0.887,0.227-1.548,1.027-1.548,1.986v26.947c0,6.566,5.318,11.908,11.853,11.908h15.996h42.502h15.997
	c6.535,0,11.852-5.342,11.852-11.908V97.447C135.099,96.378,134.282,95.509,133.243,95.414 M126.659,86.915h2.498v8.479h-2.498
	v-6.632V86.915z M122.572,90.816v4.578h-3.472v-1.012v-3.566H122.572z M126.869,55.022v5.338c0,4.303-3.483,7.803-7.765,7.803
	h-2.047h-4.946V47.22h6.993C123.386,47.22,126.869,50.72,126.869,55.022 M104.845,68.163h3.179V47.221h-3.179V68.163z M71.24,68.163
	V47.22h2.952h23.613h2.953v20.943H71.24z M82.226,39.148h7.546c2.586,0,4.794,1.654,5.631,3.965H76.595
	C77.432,40.803,79.64,39.148,82.226,39.148 M63.974,68.163h3.179V47.221h-3.179V68.163z M45.128,60.36v-5.338
	c0-4.303,3.484-7.803,7.765-7.803h6.994v20.943h-4.946h-2.048C48.612,68.163,45.128,64.663,45.128,60.36 M61.931,72.27h7.266h33.604
	h7.266h4.947v16.492v5.621c0,4.305-3.483,7.803-7.765,7.803h-1.838V92.136c0-1.137-0.916-2.054-2.044-2.054h-7.266
	c-1.127,0-2.043,0.917-2.043,2.054v10.049H77.939V92.136c0-1.137-0.916-2.054-2.044-2.054h-7.266c-1.129,0-2.044,0.917-2.044,2.054
	v10.049h-1.837c-4.28,0-7.763-3.498-7.763-7.803v-4.448V72.27H61.931z M98.147,104.24V94.189h3.178v10.051v10.049h-3.178V104.24z
	 M70.672,104.24V94.189h3.18v10.051v10.049h-3.18V104.24z M42.534,89.935c0-1.665,1.347-3.02,3.005-3.02h4.351
	c1.659,0,3.007,1.354,3.007,3.02v4.448v1.012H42.534V89.935z M48.752,132.195c-4.282,0-7.766-3.498-7.766-7.801V99.5h11.911v24.895
	c0,0.393,0.022,0.779,0.059,1.164c0.012,0.129,0.037,0.254,0.053,0.381c0.033,0.252,0.065,0.504,0.114,0.752
	c0.029,0.146,0.067,0.291,0.101,0.436c0.054,0.223,0.105,0.441,0.169,0.658c0.045,0.152,0.097,0.299,0.149,0.447
	c0.069,0.205,0.14,0.408,0.22,0.607c0.061,0.148,0.125,0.293,0.19,0.439c0.087,0.193,0.177,0.383,0.273,0.57
	c0.074,0.141,0.149,0.279,0.227,0.418c0.105,0.184,0.215,0.363,0.328,0.543c0.085,0.131,0.168,0.26,0.256,0.387
	c0.124,0.178,0.254,0.35,0.387,0.521c0.091,0.115,0.181,0.234,0.278,0.35c0.034,0.041,0.065,0.086,0.101,0.127H48.752z
	 M56.985,124.394v-21.033c2.081,1.82,4.794,2.93,7.763,2.93h1.837v10.051c0,1.135,0.915,2.055,2.044,2.055h7.266
	c1.128,0,2.044-0.92,2.044-2.055v-10.051H94.06v10.051c0,1.135,0.916,2.055,2.043,2.055h7.266c1.128,0,2.044-0.92,2.044-2.055
	v-10.051h1.838c2.97,0,5.683-1.109,7.765-2.93v21.033c0,4.303-3.483,7.801-7.765,7.801H64.748
	C60.468,132.195,56.985,128.697,56.985,124.394 M131.013,124.394c0,4.303-3.483,7.801-7.766,7.801h-7.05
	c0.035-0.041,0.065-0.086,0.101-0.127c0.096-0.115,0.187-0.234,0.277-0.35c0.132-0.172,0.264-0.344,0.387-0.521
	c0.09-0.127,0.172-0.256,0.256-0.387c0.113-0.18,0.225-0.359,0.33-0.543c0.076-0.139,0.151-0.277,0.226-0.418
	c0.096-0.188,0.186-0.377,0.274-0.57c0.064-0.146,0.129-0.291,0.188-0.439c0.08-0.199,0.151-0.402,0.221-0.607
	c0.052-0.148,0.103-0.295,0.147-0.447c0.064-0.217,0.117-0.436,0.169-0.658c0.034-0.145,0.073-0.289,0.102-0.436
	c0.05-0.248,0.082-0.5,0.115-0.752c0.017-0.127,0.04-0.252,0.052-0.381c0.037-0.385,0.059-0.771,0.059-1.164V99.5h5.516h6.396
	V124.394z"/>
</svg>
