<?xml version="1.0" encoding="utf-8"?>
<!-- Generator: Adobe Illustrator 16.0.0, SVG Export Plug-In . SVG Version: 6.00 Build 0)  -->
<!DOCTYPE svg PUBLIC "-//W3C//DTD SVG 1.1//EN" "http://www.w3.org/Graphics/SVG/1.1/DTD/svg11.dtd">
<svg version="1.1" id="Layer_1" xmlns="http://www.w3.org/2000/svg" xmlns:xlink="http://www.w3.org/1999/xlink" x="0px" y="0px"
	 width="96.211px" height="96.21px" viewBox="0 0 96.211 96.21" enable-background="new 0 0 96.211 96.21" xml:space="preserve">
<path fill="#AFC4D5" d="M96.211,48.105c0,26.567-21.537,48.104-48.105,48.104S0,74.673,0,48.105S21.537,0,48.105,0
	S96.211,21.538,96.211,48.105"/>
<g>
	<defs>
		<path id="SVGID_1_" d="M30.601,35.427c-9.774,9.797-9.774,25.679,0,35.476s25.619,9.797,35.393,0
			c9.774-9.797,9.774-25.679,0-35.476c-4.887-4.897-11.292-7.348-17.696-7.348S35.487,30.529,30.601,35.427"/>
	</defs>
	<clipPath id="SVGID_2_">
		<use xlink:href="#SVGID_1_"  overflow="visible"/>
	</clipPath>
	<rect x="20.849" y="25.659" clip-path="url(#SVGID_2_)" fill="#87A24E" width="54.896" height="55.013"/>
</g>
<g>
	<defs>
		<path id="SVGID_3_" d="M44.613,25.912l-0.304,3.162c1.253-0.067,2.527-0.041,3.814,0.086c1.29,0.128,2.545,0.351,3.762,0.662
			l0.304-3.162c0.203-2.092-1.329-3.955-3.422-4.162c-0.127-0.013-0.254-0.02-0.379-0.02C46.456,22.479,44.804,23.947,44.613,25.912
			"/>
	</defs>
	<clipPath id="SVGID_4_">
		<use xlink:href="#SVGID_3_"  overflow="visible"/>
	</clipPath>
	
		<rect x="41.538" y="20.283" transform="matrix(-0.7725 0.635 -0.635 -0.7725 102.8546 17.3146)" clip-path="url(#SVGID_4_)" fill="#CFCDCC" width="13.576" height="13.597"/>
</g>
<g>
	<defs>
		<path id="SVGID_5_" d="M35.162,39.997c-7.255,7.272-7.255,19.063,0,26.334c7.254,7.271,19.017,7.271,26.272,0
			c7.253-7.271,7.253-19.062,0-26.334c-3.628-3.635-8.382-5.453-13.136-5.453C43.542,34.544,38.789,36.362,35.162,39.997"/>
	</defs>
	<clipPath id="SVGID_6_">
		<use xlink:href="#SVGID_5_"  overflow="visible"/>
	</clipPath>
	<rect x="27.298" y="32.122" clip-path="url(#SVGID_6_)" fill="#F4E5C3" width="41.998" height="42.084"/>
</g>
<g>
	<defs>
		<polygon id="SVGID_7_" points="43.437,53.165 48.297,53.165 53.158,53.165 48.297,42.376 		"/>
	</defs>
	<clipPath id="SVGID_8_">
		<use xlink:href="#SVGID_7_"  overflow="visible"/>
	</clipPath>
	<rect x="41.015" y="39.954" clip-path="url(#SVGID_8_)" fill="#FFFFFF" width="14.563" height="15.632"/>
</g>
<g>
	<defs>
		<polygon id="SVGID_9_" points="48.297,53.164 43.437,53.164 48.297,63.953 53.158,53.164 		"/>
	</defs>
	<clipPath id="SVGID_10_">
		<use xlink:href="#SVGID_9_"  overflow="visible"/>
	</clipPath>
	<rect x="41.015" y="50.743" clip-path="url(#SVGID_10_)" fill="#EF3C36" width="14.563" height="15.633"/>
</g>
<g>
	<defs>
		<path id="SVGID_11_" d="M56.099,63.464c-7.379,7.397-18.219,9.204-27.295,5.433c0.559,0.691,1.156,1.362,1.797,2.006
			c9.773,9.797,25.619,9.797,35.393,0c9.774-9.797,9.774-25.679,0-35.476c-2.395-2.399-5.153-4.207-8.098-5.431
			C65.826,39.846,65.229,54.311,56.099,63.464"/>
	</defs>
	<clipPath id="SVGID_12_">
		<use xlink:href="#SVGID_11_"  overflow="visible"/>
	</clipPath>
	<g opacity="0.2" clip-path="url(#SVGID_12_)">
		<g>
			<defs>
				<rect id="SVGID_13_" x="26.382" y="27.574" width="49.363" height="53.097"/>
			</defs>
			<clipPath id="SVGID_14_">
				<use xlink:href="#SVGID_13_"  overflow="visible"/>
			</clipPath>
			<rect x="26.382" y="27.574" clip-path="url(#SVGID_14_)" fill="#040505" width="49.362" height="53.098"/>
		</g>
	</g>
</g>
<g>
	<defs>
		<path id="SVGID_15_" d="M49.534,39.301V36.67c3.633,0.259,7.189,1.658,10.105,4.192l-1.859,1.861
			c-0.482,0.484-0.482,1.269,0,1.753c0.243,0.243,0.56,0.363,0.876,0.363s0.633-0.12,0.874-0.363l1.859-1.863
			c2.469,2.847,3.925,6.369,4.188,10.132h-2.633c-0.682,0-1.235,0.555-1.235,1.24c0,0.683,0.554,1.238,1.235,1.238h2.633
			c-0.264,3.763-1.72,7.283-4.188,10.132l-1.859-1.864c-0.482-0.484-1.266-0.484-1.75,0c-0.482,0.483-0.482,1.268,0,1.752
			l1.859,1.862c-2.916,2.535-6.475,3.933-10.105,4.191v-2.629c0-0.684-0.554-1.24-1.237-1.24c-0.683,0-1.236,0.557-1.236,1.24v2.629
			c-3.633-0.258-7.191-1.655-10.106-4.191l1.858-1.862c0.483-0.483,0.483-1.269,0-1.752c-0.483-0.484-1.266-0.484-1.749,0
			l-1.857,1.861c-2.529-2.923-3.925-6.487-4.183-10.129h2.624c0.683,0,1.237-0.556,1.237-1.238c0-0.686-0.554-1.24-1.237-1.24
			h-2.624c0.258-3.642,1.652-7.207,4.183-10.131l1.857,1.862c0.242,0.243,0.558,0.363,0.875,0.363c0.316,0,0.633-0.12,0.874-0.363
			c0.483-0.484,0.483-1.27,0-1.753l-1.858-1.861c2.915-2.534,6.473-3.934,10.106-4.192v2.631c0,0.685,0.554,1.238,1.236,1.238
			C48.98,40.539,49.534,39.985,49.534,39.301 M48.122,34.142c-5.015,0.044-10.017,1.973-13.835,5.8
			c-3.819,3.827-5.742,8.843-5.786,13.869c-0.008,0.057-0.017,0.115-0.017,0.175c0,0.058,0.009,0.115,0.017,0.174
			c0.044,5.026,1.967,10.041,5.786,13.868c3.817,3.825,8.817,5.753,13.831,5.799c0.06,0.009,0.118,0.018,0.18,0.018
			c0.063,0,0.122-0.009,0.183-0.018c5.013-0.047,10.011-1.975,13.828-5.799c3.743-3.751,5.804-8.738,5.804-14.042
			c0-5.306-2.061-10.293-5.804-14.044c-3.818-3.827-8.821-5.756-13.836-5.8c-0.059-0.009-0.114-0.017-0.175-0.017
			C48.237,34.125,48.181,34.133,48.122,34.142"/>
	</defs>
	<clipPath id="SVGID_16_">
		<use xlink:href="#SVGID_15_"  overflow="visible"/>
	</clipPath>
	<rect x="26.062" y="31.702" clip-path="url(#SVGID_16_)" fill="#2F2F31" width="44.472" height="44.563"/>
</g>
<g>
	<defs>
		<path id="SVGID_17_" d="M45.352,55.224h5.891l-2.945,6.536L45.352,55.224z M48.297,46.208l2.945,6.537h-5.891L48.297,46.208z
			 M47.169,42.685l-4.861,10.79c-0.009,0.02-0.01,0.041-0.019,0.063c-0.018,0.048-0.033,0.095-0.045,0.145
			c-0.013,0.052-0.024,0.101-0.03,0.152c-0.006,0.05-0.007,0.099-0.007,0.151c0,0.05,0.001,0.1,0.007,0.15
			c0.006,0.051,0.017,0.102,0.03,0.151c0.012,0.049,0.027,0.097,0.045,0.145c0.009,0.021,0.01,0.043,0.019,0.063l4.861,10.789
			c0.201,0.443,0.641,0.73,1.127,0.73c0.487,0,0.928-0.287,1.128-0.73l4.86-10.789c0.011-0.02,0.011-0.042,0.021-0.063
			c0.017-0.048,0.031-0.096,0.043-0.145c0.014-0.05,0.024-0.101,0.031-0.151s0.007-0.101,0.007-0.15c0-0.053,0-0.102-0.007-0.151
			c-0.007-0.052-0.018-0.101-0.031-0.152c-0.012-0.05-0.026-0.097-0.043-0.145c-0.01-0.021-0.01-0.043-0.021-0.063l-4.86-10.79
			c-0.2-0.442-0.641-0.729-1.128-0.729C47.811,41.956,47.37,42.242,47.169,42.685"/>
	</defs>
	<clipPath id="SVGID_18_">
		<use xlink:href="#SVGID_17_"  overflow="visible"/>
	</clipPath>
	<rect x="39.786" y="39.535" clip-path="url(#SVGID_18_)" fill="#2F2F31" width="17.023" height="28.898"/>
</g>
<g>
	<defs>
		<path id="SVGID_19_" d="M47.403,22.049c-0.571,0-1.108,0.136-1.593,0.36c0.803,0.7,1.321,1.717,1.322,2.862l0.004,3.176
			c-1.151-0.176-2.331-0.267-3.527-0.28l0.001,0.86c1.241-0.188,2.512-0.284,3.807-0.283c1.293,0.001,2.565,0.101,3.807,0.291
			l-0.004-3.174c-0.002-2.103-1.708-3.81-3.811-3.813C47.407,22.049,47.405,22.049,47.403,22.049"/>
	</defs>
	<clipPath id="SVGID_20_">
		<use xlink:href="#SVGID_19_"  overflow="visible"/>
	</clipPath>
	<g opacity="0.2" clip-path="url(#SVGID_20_)">
		<g>
			<defs>
				<rect id="SVGID_21_" x="37.978" y="17.218" width="19.044" height="19.045"/>
			</defs>
			<clipPath id="SVGID_22_">
				<use xlink:href="#SVGID_21_"  overflow="visible"/>
			</clipPath>
			
				<rect x="40.711" y="20.062" transform="matrix(-0.7071 0.7071 -0.7071 -0.7071 99.9945 12.0594)" clip-path="url(#SVGID_22_)" fill="#040505" width="13.577" height="13.357"/>
		</g>
	</g>
</g>
<g>
	<defs>
		<path id="SVGID_23_" d="M24.208,54.351c-0.008-6.565,2.656-12.518,6.964-16.824c3.518-3.518,8.132-5.938,13.28-6.704
			c0.505-0.075,1.016-0.129,1.528-0.172c0.131-0.012,0.263-0.021,0.396-0.03c0.54-0.036,1.081-0.061,1.621-0.06
			c0.546,0.001,1.091,0.027,1.633,0.065c0.127,0.008,0.254,0.018,0.38,0.028c0.531,0.045,1.06,0.102,1.582,0.182
			c11.436,1.751,20.237,11.659,20.252,23.57c0.016,13.122-10.645,23.79-23.765,23.791c-0.009,0-0.016,0-0.025,0
			C34.919,78.181,24.223,67.484,24.208,54.351 M45.424,26.432c-0.002-1.416,1.149-2.565,2.566-2.565
			c1.416,0.002,2.569,1.155,2.57,2.571l0.002,1.775c-0.216-0.021-0.433-0.033-0.65-0.049c-0.204-0.014-0.404-0.034-0.608-0.044
			c-0.437-0.023-0.873-0.034-1.309-0.036h-0.001c-0.438,0-0.88,0.011-1.319,0.032c-0.175,0.008-0.348,0.025-0.524,0.038
			c-0.242,0.017-0.484,0.028-0.726,0.052L45.424,26.432z M41.362,18.889c-0.003-1.77,0.684-3.43,1.934-4.68
			c1.248-1.25,2.91-1.936,4.679-1.934c1.769,0.001,3.432,0.691,4.685,1.944c1.252,1.252,1.942,2.916,1.945,4.686
			c0.002,1.934-0.851,3.731-2.274,4.972c-0.214-0.36-0.471-0.7-0.775-1.005c-0.954-0.954-2.221-1.48-3.569-1.481
			c-1.347-0.003-2.612,0.521-3.564,1.474c-0.306,0.304-0.561,0.643-0.774,1.004C42.221,22.624,41.364,20.824,41.362,18.889
			 M47.955,9.8c-2.424,0-4.701,0.944-6.413,2.655c-1.717,1.718-2.66,4.002-2.657,6.431c0.003,3.054,1.548,5.867,4.061,7.55
			l0.005,2.135c-12.091,2.345-21.236,13.006-21.22,25.777c0.017,14.499,11.825,26.309,26.324,26.324
			c7.249,0.009,13.818-2.932,18.574-7.688c4.757-4.757,7.698-11.326,7.689-18.574c-0.015-12.774-9.184-23.454-21.28-25.829
			l-0.003-2.117c0.504-0.335,0.972-0.714,1.391-1.133c1.68-1.681,2.658-3.978,2.655-6.423c-0.004-2.432-0.951-4.717-2.672-6.438
			c-1.721-1.72-4.007-2.67-6.438-2.671C47.968,9.8,47.96,9.8,47.955,9.8"/>
	</defs>
	<clipPath id="SVGID_24_">
		<use xlink:href="#SVGID_23_"  overflow="visible"/>
	</clipPath>
	
		<rect x="15.397" y="16.096" transform="matrix(-0.7071 0.7071 -0.7071 -0.7071 116.4704 49.3326)" clip-path="url(#SVGID_24_)" fill="#2F2F31" width="65.243" height="65.383"/>
</g>
</svg>
